<svg width="51" height="50" viewBox="0 0 51 50" fill="none" xmlns="http://www.w3.org/2000/svg">
<path opacity="0.5" d="M49.6929 25C49.6929 38.5292 38.6825 49.5 25.0965 49.5C11.5104 49.5 0.5 38.5292 0.5 25C0.5 11.4708 11.5104 0.5 25.0965 0.5C38.6825 0.5 49.6929 11.4708 49.6929 25Z" fill="white" stroke="black"/>
<path opacity="0.5" d="M13.347 24.2929C12.9564 24.6834 12.9564 25.3166 13.347 25.7071L19.7109 32.0711C20.1015 32.4616 20.7346 32.4616 21.1251 32.0711C21.5157 31.6805 21.5157 31.0474 21.1251 30.6569L15.4683 25L21.1251 19.3431C21.5157 18.9526 21.5157 18.3195 21.1251 17.9289C20.7346 17.5384 20.1015 17.5384 19.7109 17.9289L13.347 24.2929ZM37.1428 24L14.0541 24L14.0541 26L37.1428 26L37.1428 24Z" fill="black"/>
</svg>
