<svg width="51" height="50" viewBox="0 0 51 50" fill="none" xmlns="http://www.w3.org/2000/svg">
<path d="M0.499947 25C0.499947 38.5292 11.5103 49.5 25.0964 49.5C38.6825 49.5 49.6929 38.5292 49.6929 25C49.6929 11.4708 38.6825 0.5 25.0964 0.5C11.5103 0.5 0.499947 11.4708 0.499947 25Z" stroke="#A06205"/>
<path d="M36.8461 24.2929C37.2367 24.6834 37.2367 25.3166 36.8461 25.7071L30.4822 32.0711C30.0917 32.4616 29.4585 32.4616 29.068 32.0711C28.6774 31.6805 28.6774 31.0474 29.068 30.6569L34.7248 25L29.068 19.3431C28.6774 18.9526 28.6774 18.3195 29.068 17.9289C29.4585 17.5384 30.0917 17.5384 30.4822 17.9289L36.8461 24.2929ZM13.0503 24L36.139 24L36.139 26L13.0503 26L13.0503 24Z" fill="#A06205"/>
</svg>
