<svg width="16" height="16" viewBox="0 0 16 16" fill="none" xmlns="http://www.w3.org/2000/svg">
<path d="M4.58045 13.3154L4.47235 13.1246L4.25882 13.0749L2.06437 12.564L2.27979 10.1783L2.29843 9.97188L2.16557 9.81281L0.651461 8L2.16557 6.18719L2.29843 6.02812L2.27979 5.8217L2.06437 3.43595L4.25882 2.92507L4.47235 2.87536L4.58045 2.68463L5.7382 0.641874L7.79604 1.56127L8 1.6524L8.20396 1.56127L10.2618 0.641874L11.4196 2.68463L11.5277 2.87536L11.7412 2.92507L13.9356 3.43595L13.7202 5.8217L13.7016 6.02812L13.8344 6.18719L15.3485 8L13.8344 9.81281L13.7016 9.97188L13.7202 10.1783L13.9356 12.564L11.7412 13.0749L11.5277 13.1246L11.4196 13.3154L10.2618 15.3581L8.20396 14.4387L8 14.3476L7.79604 14.4387L5.7382 15.3581L4.58045 13.3154ZM6.87469 11.05L7.23636 11.4289L7.59804 11.05L11.7071 6.74524L12.0309 6.406L11.7131 6.06115L10.6949 4.95639L10.3337 4.5644L9.9656 4.95L7.23213 7.81363L6.03032 6.58387L5.6685 6.21363L5.31105 6.5881L4.29287 7.65476L3.96332 8L4.29287 8.34524L6.87469 11.05Z" fill="#3897F0" stroke="black"/>
</svg>
