<svg width="22" height="21" viewBox="0 0 22 21" fill="none" xmlns="http://www.w3.org/2000/svg">
<path d="M21.029 6.59829C20.9814 5.51891 20.8069 4.77691 20.5568 4.13389C20.2989 3.45138 19.902 2.84033 19.3822 2.33235C18.8742 1.81647 18.2591 1.41559 17.5845 1.1617C16.9378 0.911695 16.1996 0.737089 15.1202 0.689549C14.0328 0.637881 13.6876 0.625977 10.9296 0.625977C8.17165 0.625977 7.82645 0.637881 6.74306 0.685501C5.66372 0.733121 4.92169 0.907806 4.27886 1.15765C3.59615 1.41559 2.98511 1.81242 2.47713 2.33235C1.96125 2.8403 1.56057 3.45538 1.30647 4.13C1.05647 4.77691 0.881904 5.51494 0.834324 6.59424C0.782697 7.68168 0.770752 8.02688 0.770752 10.7849C0.770752 13.5428 0.782697 13.8881 0.830277 14.9714C0.877896 16.0508 1.05258 16.7928 1.30262 17.4358C1.56057 18.1183 1.96125 18.7294 2.47713 19.2374C2.98511 19.7532 3.6002 20.1541 4.27481 20.408C4.92165 20.658 5.65967 20.8326 6.73921 20.8802C7.8224 20.9279 8.16781 20.9397 10.9258 20.9397C13.6838 20.9397 14.029 20.9279 15.1124 20.8802C16.1917 20.8326 16.9337 20.6581 17.5766 20.408C18.2517 20.147 18.8649 19.7477 19.3767 19.2359C19.8886 18.7241 20.2879 18.111 20.5489 17.4358C20.7988 16.789 20.9735 16.0508 21.0211 14.9714C21.0687 13.8881 21.0806 13.5428 21.0806 10.7849C21.0806 8.02688 21.0766 7.68164 21.029 6.59829ZM19.1997 14.8921C19.156 15.8841 18.9894 16.4199 18.8505 16.777C18.5091 17.6619 17.8068 18.3643 16.9218 18.7057C16.5646 18.8446 16.0251 19.0112 15.0368 19.0547C13.9654 19.1025 13.6441 19.1143 10.9337 19.1143C8.22328 19.1143 7.89792 19.1025 6.83033 19.0547C5.83825 19.0112 5.30253 18.8446 4.94538 18.7057C4.50501 18.5429 4.10417 18.285 3.77877 17.9477C3.44147 17.6183 3.18353 17.2215 3.02075 16.7811C2.88185 16.4239 2.71523 15.8841 2.67169 14.8961C2.62391 13.8247 2.61217 13.5032 2.61217 10.7928C2.61217 8.08236 2.62391 7.757 2.67169 6.6896C2.71523 5.69752 2.88185 5.1618 3.02075 4.80465C3.18353 4.36409 3.44147 3.96333 3.78282 3.63785C4.11203 3.30054 4.50886 3.0426 4.94942 2.88002C5.30657 2.74113 5.84634 2.57446 6.83437 2.53077C7.90582 2.48315 8.22733 2.47124 10.9375 2.47124C13.652 2.47124 13.9733 2.48315 15.0409 2.53077C16.033 2.5745 16.5687 2.74109 16.9258 2.87998C17.3662 3.0426 17.7671 3.30054 18.0924 3.63785C18.4297 3.96726 18.6877 4.36409 18.8505 4.80465C18.9894 5.1618 19.156 5.70137 19.1997 6.6896C19.2473 7.76104 19.2592 8.08236 19.2592 10.7928C19.2592 13.5032 19.2473 13.8206 19.1997 14.8921Z" fill="#2D83C8"/>
<path d="M10.9298 5.56615C8.04884 5.56615 5.71143 7.9034 5.71143 10.7845C5.71143 13.6656 8.04884 16.0028 10.9298 16.0028C13.8108 16.0028 16.1481 13.6656 16.1481 10.7845C16.1481 7.9034 13.8108 5.56615 10.9298 5.56615ZM10.9298 14.1694C9.06076 14.1694 7.54471 12.6536 7.54471 10.7845C7.54471 8.91532 9.06076 7.39951 10.9297 7.39951C12.7989 7.39951 14.3147 8.91532 14.3147 10.7845C14.3147 12.6536 12.7988 14.1694 10.9298 14.1694ZM17.5728 5.35979C17.5728 6.03258 17.0273 6.57807 16.3544 6.57807C15.6816 6.57807 15.1361 6.03258 15.1361 5.35979C15.1361 4.68693 15.6816 4.1416 16.3544 4.1416C17.0273 4.1416 17.5728 4.68689 17.5728 5.35979Z" fill="#2D83C8"/>
</svg>
