<svg width="20" height="21" viewBox="0 0 20 21" fill="none" xmlns="http://www.w3.org/2000/svg">
<path d="M19.5119 20.0776V12.9534C19.5119 9.45214 18.7581 6.77754 14.6733 6.77754C12.7038 6.77754 11.3909 7.84738 10.8559 8.86859H10.8073V7.09363H6.9413V20.0776H10.9775V13.6342C10.9775 11.9322 11.2936 10.3031 13.3846 10.3031C15.4514 10.3031 15.4757 12.224 15.4757 13.7315V20.0533H19.5119V20.0776ZM0.376391 7.09363H4.4126V20.0776H0.376391V7.09363ZM2.39449 0.625977C1.10583 0.625977 0.0603027 1.6715 0.0603027 2.96017C0.0603027 4.24884 1.10583 5.31867 2.39449 5.31867C3.68316 5.31867 4.72868 4.24884 4.72868 2.96017C4.72868 1.6715 3.68316 0.625977 2.39449 0.625977Z" fill="#2D83C8"/>
</svg>
