<svg width="25" height="21" viewBox="0 0 25 21" fill="none" xmlns="http://www.w3.org/2000/svg">
<path d="M24.2935 2.92875C23.4032 3.31927 22.4545 3.57813 21.4655 3.70382C22.483 3.09633 23.2595 2.1417 23.6246 0.991068C22.676 1.55666 21.6286 1.95617 20.5124 2.17911C19.6116 1.22 18.3278 0.625977 16.9273 0.625977C14.21 0.625977 12.0225 2.83149 12.0225 5.53526C12.0225 5.92429 12.0554 6.29836 12.1362 6.65447C8.05586 6.45547 4.44534 4.49984 2.01988 1.52075C1.59643 2.25542 1.34805 3.09633 1.34805 4.00158C1.34805 5.70135 2.22337 7.2081 3.52813 8.08042C2.73959 8.06546 1.96601 7.83653 1.31064 7.47593V7.5298C1.31064 9.91486 3.01191 11.8959 5.24286 12.3523C4.84335 12.4615 4.40794 12.5139 3.95606 12.5139C3.64184 12.5139 3.32463 12.4959 3.02687 12.4301C3.66279 14.3738 5.4673 15.8027 7.61296 15.8491C5.94312 17.1553 3.82289 17.9424 1.5276 17.9424C1.12511 17.9424 0.739067 17.9244 0.353027 17.875C2.52712 19.2771 5.10371 20.0776 7.88229 20.0776C16.9138 20.0776 21.8515 12.5962 21.8515 6.11133C21.8515 5.89437 21.844 5.68489 21.8336 5.4769C22.8076 4.78562 23.6261 3.92227 24.2935 2.92875Z" fill="#2D83C8"/>
</svg>
