<svg width="32" height="31" viewBox="0 0 32 31" fill="none" xmlns="http://www.w3.org/2000/svg">
<path d="M5.375 18.125V22.375C5.375 23.4796 6.27043 24.375 7.375 24.375H24.625C25.7296 24.375 26.625 23.4796 26.625 22.375V20.625M5.375 14.375V12.84C5.375 11.6167 6.36669 10.625 7.59 10.625V10.625C8.51331 10.625 9.33978 10.0523 9.66397 9.18774L10.5133 6.92275C10.8061 6.14215 11.5523 5.625 12.386 5.625H19.614C20.4477 5.625 21.1939 6.14215 21.4867 6.92275L22.336 9.18774C22.6602 10.0523 23.4867 10.625 24.41 10.625V10.625C25.6333 10.625 26.625 11.6167 26.625 12.84V16.875" stroke="#222222" stroke-linecap="round"/>
<circle cx="16" cy="16.25" r="4.5" stroke="#222222"/>
<line x1="4" y1="30.5" y2="30.5" stroke="black"/>
<line x1="4" y1="0.5" y2="0.5" stroke="black"/>
<line x1="0.5" y1="1" x2="0.5" y2="30" stroke="black"/>
<line y1="-0.5" x2="4" y2="-0.5" transform="matrix(1 0 0 -1 28 30)" stroke="black"/>
<line y1="-0.5" x2="4" y2="-0.5" transform="matrix(1 0 0 -1 28 0)" stroke="black"/>
<line y1="-0.5" x2="29" y2="-0.5" transform="matrix(0 1 1 0 32 1)" stroke="black"/>
</svg>
