<svg width="28" height="20" viewBox="0 0 28 20" fill="none" xmlns="http://www.w3.org/2000/svg">
<g filter="url(#filter0_d_120_328)">
<path fill-rule="evenodd" clip-rule="evenodd" d="M18.2578 0.248184C19.9918 0.650527 20.6551 1.66447 21.4867 3.06006H18.2578V0.248184ZM8.12414 3.17725C8.46367 3.17725 8.71008 3.34111 8.71008 3.72412C8.71008 4.04717 8.44871 4.30916 8.12582 4.31006H4.58594C4.2623 4.31006 4 4.57252 4 4.896C4 5.21963 4.2623 5.48193 4.58594 5.48193H9.85938C10.1861 5.48193 10.4476 5.74404 10.4476 6.06787C10.4476 6.3915 10.1853 6.65381 9.86168 6.65381H4.58594C4.2623 6.65381 4 6.91611 4 7.23975C4 7.56338 4.2623 7.82568 4.58594 7.82568H5.875V9.5835C5.875 9.90713 6.1373 10.1694 6.46094 10.1694H7.63875C7.84871 11.2037 8.76258 11.9663 9.83984 11.9663C10.9171 11.9663 11.831 11.2037 12.0409 10.1694H17.9903C18.2003 11.2037 19.1141 11.9663 20.1914 11.9663C21.2687 11.9663 22.1825 11.2037 22.3925 10.1694H23.4141C23.7377 10.1694 24 9.90713 24 9.5835V6.06787C24 4.34865 22.1866 4.23451 22.185 4.23193H17.6719C17.3482 4.23193 17.0859 3.96963 17.0859 3.646V0.130371H6.46094C6.1373 0.130371 5.875 0.392676 5.875 0.716309V2.00537H5.17188C4.84824 2.00537 4.58594 2.26768 4.58594 2.59131C4.58594 2.91494 4.84824 3.17725 5.17188 3.17725H8.12414ZM20.951 8.96064C21.3705 9.3801 21.3705 10.0605 20.951 10.4799C20.2763 11.1547 19.1172 10.6747 19.1172 9.72021C19.1172 8.76592 20.2763 8.28588 20.951 8.96064ZM10.5994 8.96064C11.0189 9.3801 11.0189 10.0605 10.5994 10.4799C9.92469 11.1547 8.76562 10.6747 8.76562 9.72021C8.76562 8.76592 9.92469 8.28588 10.5994 8.96064Z" fill="#A06205"/>
</g>
<defs>
<filter id="filter0_d_120_328" x="0" y="0.130371" width="28" height="19.8359" filterUnits="userSpaceOnUse" color-interpolation-filters="sRGB">
<feFlood flood-opacity="0" result="BackgroundImageFix"/>
<feColorMatrix in="SourceAlpha" type="matrix" values="0 0 0 0 0 0 0 0 0 0 0 0 0 0 0 0 0 0 127 0" result="hardAlpha"/>
<feOffset dy="4"/>
<feGaussianBlur stdDeviation="2"/>
<feComposite in2="hardAlpha" operator="out"/>
<feColorMatrix type="matrix" values="0 0 0 0 0 0 0 0 0 0 0 0 0 0 0 0 0 0 0.25 0"/>
<feBlend mode="normal" in2="BackgroundImageFix" result="effect1_dropShadow_120_328"/>
<feBlend mode="normal" in="SourceGraphic" in2="effect1_dropShadow_120_328" result="shape"/>
</filter>
</defs>
</svg>
