<svg width="18" height="20" viewBox="0 0 18 20" fill="none" xmlns="http://www.w3.org/2000/svg">
<g clip-path="url(#clip0_267_697)">
<path d="M4.5 16.7396H6.45772C6.71297 16.7396 6.96666 16.7733 7.21411 16.8408L9.28267 17.3993C9.73147 17.5208 10.1991 17.5326 10.6526 17.4347L12.9398 16.9403C13.5439 16.8096 14.0997 16.4881 14.5352 16.0173L16.1534 14.2683C16.6155 13.7697 16.6155 12.9606 16.1534 12.4611C15.7374 12.0115 15.0785 11.9608 14.6078 12.3421L12.722 13.871C12.4519 14.0903 12.1232 14.2084 11.7853 14.2084H9.96412H11.1233C11.7767 14.2084 12.3059 13.6363 12.3059 12.9301V12.6746C12.3059 12.0881 11.9367 11.5769 11.4106 11.4351L9.62145 10.9517C9.3303 10.8732 9.0321 10.8336 8.73232 10.8336C8.00872 10.8336 6.69892 11.4992 6.69892 11.4992L4.5 12.521M1.5 12.1669V17.0002C1.5 17.467 1.5 17.7003 1.58174 17.8786C1.65365 18.0354 1.76839 18.1628 1.90951 18.2427C2.06994 18.3336 2.27996 18.3336 2.7 18.3336H3.3C3.72004 18.3336 3.93006 18.3336 4.09049 18.2427C4.23161 18.1629 4.34635 18.0354 4.41826 17.8786C4.5 17.7003 4.5 17.467 4.5 17.0002V12.1669C4.5 11.7002 4.5 11.4668 4.41826 11.2886C4.34635 11.1318 4.23161 11.0043 4.09049 10.9244C3.93006 10.8336 3.72004 10.8336 3.3 10.8336H2.7C2.27996 10.8336 2.06994 10.8336 1.90951 10.9244C1.76839 11.0043 1.65365 11.1318 1.58174 11.2886C1.5 11.4668 1.5 11.7002 1.5 12.1669ZM12.8936 2.99378C12.446 1.95307 11.4139 1.40173 10.4103 1.93388C9.40672 2.46604 8.97915 3.72806 9.39938 4.83593C9.65903 5.52063 10.403 6.85024 10.9336 7.7661C11.1296 8.1045 11.2276 8.2737 11.3708 8.37264C11.4935 8.45756 11.6473 8.50331 11.7918 8.49806C11.9603 8.49181 12.1214 8.39973 12.4433 8.2156C13.3149 7.71717 14.5576 6.97903 15.0906 6.53034C15.953 5.80434 16.1667 4.46988 15.521 3.45544C14.8753 2.44099 13.7495 2.34118 12.8936 2.99378Z" stroke="#A06205" stroke-width="2" stroke-linecap="round" stroke-linejoin="round"/>
</g>
<defs>
<clipPath id="clip0_267_697">
<rect width="18" height="20" fill="white"/>
</clipPath>
</defs>
</svg>
