<svg width="31" height="31" viewBox="0 0 31 31" fill="none" xmlns="http://www.w3.org/2000/svg">
<path d="M15.541 3.61194C19.5461 3.61194 20.0206 3.62719 21.6023 3.69932C23.0648 3.76607 23.859 4.01044 24.3876 4.21582C25.0878 4.48794 25.5874 4.81295 26.1123 5.33782C26.6373 5.86282 26.9623 6.36245 27.2344 7.06258C27.4398 7.59121 27.6841 8.38546 27.7509 9.84784C27.823 11.4296 27.8383 11.904 27.8383 15.9091C27.8383 19.9144 27.823 20.3888 27.7509 21.9705C27.6841 23.433 27.4398 24.2271 27.2344 24.7558C26.9623 25.4559 26.6373 25.9557 26.1124 26.4805C25.5874 27.0054 25.0878 27.3304 24.3876 27.6025C23.859 27.808 23.0648 28.0523 21.6023 28.119C20.0209 28.1912 19.5465 28.2065 15.541 28.2065C11.5355 28.2065 11.0613 28.1912 9.47976 28.119C8.01726 28.0523 7.22302 27.808 6.69439 27.6025C5.99427 27.3304 5.49464 27.0054 4.96977 26.4805C4.44489 25.9557 4.11977 25.4559 3.84764 24.7558C3.64227 24.2271 3.39789 23.433 3.33114 21.9705C3.25902 20.3888 3.24377 19.9144 3.24377 15.9091C3.24377 11.904 3.25902 11.4296 3.33114 9.84784C3.39789 8.38546 3.64227 7.59121 3.84764 7.06258C4.11977 6.36245 4.44477 5.86283 4.96977 5.33795C5.49464 4.81295 5.99427 4.48794 6.69439 4.21582C7.22302 4.01044 8.01726 3.76607 9.47976 3.69932C11.0614 3.62719 11.5359 3.61194 15.541 3.61194ZM15.541 0.90918C11.4673 0.90918 10.9564 0.92643 9.35652 0.99943C7.76002 1.07231 6.66952 1.32581 5.71539 1.69668C4.72902 2.07993 3.89252 2.59281 3.05864 3.42682C2.22464 4.26069 1.71177 5.0972 1.32852 6.08358C0.957641 7.0377 0.70414 8.12809 0.631265 9.72472C0.558265 11.3246 0.541016 11.8355 0.541016 15.9091C0.541016 19.983 0.558265 20.4938 0.631265 22.0936C0.70414 23.6903 0.957641 24.7807 1.32852 25.7348C1.71177 26.7212 2.22464 27.5577 3.05864 28.3917C3.89252 29.2255 4.72902 29.7384 5.71539 30.1217C6.66952 30.4925 7.76002 30.7461 9.35652 30.8189C10.9564 30.8919 11.4673 30.9092 15.541 30.9092C19.6148 30.9092 20.1256 30.8919 21.7255 30.8189C23.322 30.7461 24.4125 30.4925 25.3666 30.1217C26.353 29.7384 27.1895 29.2255 28.0234 28.3917C28.8573 27.5577 29.3703 26.7212 29.7535 25.7348C30.1244 24.7807 30.3779 23.6903 30.4508 22.0936C30.5238 20.4938 30.541 19.983 30.541 15.9091C30.541 11.8355 30.5238 11.3246 30.4508 9.72472C30.3779 8.12809 30.1244 7.0377 29.7535 6.08358C29.3703 5.0972 28.8573 4.26069 28.0234 3.42682C27.1895 2.59281 26.353 2.07993 25.3666 1.69668C24.4125 1.32581 23.322 1.07231 21.7255 0.99943C20.1256 0.92643 19.6148 0.90918 15.541 0.90918Z" fill="#A06205"/>
<path d="M15.541 8.40918C11.3988 8.40918 8.04102 11.767 8.04102 15.9092C8.04102 20.0514 11.3988 23.4092 15.541 23.4092C19.6831 23.4092 23.041 20.0514 23.041 15.9092C23.041 11.767 19.6831 8.40918 15.541 8.40918ZM15.541 20.7776C12.8522 20.7776 10.6725 18.5979 10.6725 15.9092C10.6725 13.2204 12.8522 11.0407 15.541 11.0407C18.2298 11.0407 20.4094 13.2204 20.4094 15.9092C20.4094 18.5979 18.2298 20.7776 15.541 20.7776Z" fill="#A06205"/>
<path d="M24.916 8.40924C24.916 9.44462 24.0766 10.2842 23.041 10.2842C22.0055 10.2842 21.166 9.44462 21.166 8.40924C21.166 7.37373 22.0055 6.53418 23.041 6.53418C24.0766 6.53418 24.916 7.37373 24.916 8.40924Z" fill="#A06205"/>
</svg>
