<svg width="26" height="31" viewBox="0 0 26 31" fill="none" xmlns="http://www.w3.org/2000/svg">
<path d="M13.7538 0.934191C15.3243 0.90918 16.8833 0.922186 18.4414 0.90918C18.4932 2.94113 19.2838 4.76998 20.5416 6.12461L20.5396 6.12261C21.8934 7.39421 23.6548 8.21859 25.5967 8.35866L25.6235 8.36066V13.399C23.7892 13.351 22.0641 12.9098 20.5089 12.1514L20.5876 12.1854C19.8354 11.8083 19.1994 11.4211 18.5949 10.9889L18.6448 11.0229C18.6333 14.6736 18.6563 18.3243 18.6208 21.962C18.522 23.8159 17.931 25.5067 16.9831 26.9183L17.0023 26.8873C15.4174 29.2544 12.85 30.8081 9.93053 30.9002H9.9171C9.79909 30.9062 9.65998 30.9092 9.51991 30.9092C7.86013 30.9092 6.30878 30.427 4.98671 29.5896L5.02509 29.6126C2.6189 28.1029 0.959127 25.5197 0.652118 22.5153L0.64828 22.4742C0.624295 21.849 0.612782 21.2237 0.636767 20.6114C1.10688 15.8301 4.94834 12.1314 9.61777 12.1314C10.1426 12.1314 10.6568 12.1784 11.1567 12.2675L11.1029 12.2595C11.1269 14.1093 11.055 15.9602 11.055 17.8101C10.6491 17.657 10.1809 17.568 9.6926 17.568C7.90043 17.568 6.37593 18.7625 5.8118 20.4303L5.80317 20.4603C5.67557 20.8875 5.60169 21.3787 5.60169 21.887C5.60169 22.0931 5.61417 22.2972 5.63719 22.4973L5.63527 22.4732C5.9538 24.5202 7.63659 26.0649 9.66574 26.0649C9.72426 26.0649 9.78182 26.0639 9.83939 26.0609H9.83076C11.2344 26.0169 12.4528 25.2295 13.1417 24.066L13.1513 24.048C13.4074 23.6758 13.583 23.2256 13.6415 22.7364L13.6425 22.7224C13.7624 20.4843 13.7144 18.2593 13.7259 16.0212C13.7375 10.9829 13.7144 5.95654 13.7499 0.93119L13.7538 0.934191Z" fill="#A06205"/>
</svg>
