<svg width="7" height="14" viewBox="0 0 7 14" fill="none" xmlns="http://www.w3.org/2000/svg">
<path d="M5.37885 6.13684C4.84872 5.84387 4.2851 5.62066 3.72706 5.38907C3.4034 5.25515 3.09369 5.0989 2.82026 4.88126C2.28175 4.45157 2.38499 3.75403 3.01557 3.4778C3.19414 3.39968 3.38108 3.37457 3.57082 3.36341C4.30184 3.32434 4.9966 3.45827 5.65787 3.77635C5.98711 3.93539 6.09593 3.88517 6.20753 3.54198C6.32472 3.17925 6.42238 2.81095 6.53119 2.44544C6.60374 2.1999 6.51445 2.03807 6.28287 1.93483C5.85876 1.74789 5.42349 1.61396 4.9659 1.54142C4.36881 1.44934 4.36881 1.44655 4.36602 0.846664C4.36323 0.00124007 4.36323 0.00124008 3.51501 0.00124008C3.39224 0.00124008 3.26948 -0.0015501 3.14671 0.00124008C2.7505 0.0124008 2.68354 0.0821553 2.67238 0.481151C2.6668 0.659722 2.67238 0.838294 2.66959 1.01966C2.6668 1.54979 2.66401 1.54142 2.15619 1.72557C0.928516 2.172 0.169587 3.00905 0.0886723 4.34834C0.0161277 5.53416 0.635547 6.33495 1.60932 6.91809C2.20921 7.27803 2.87327 7.49008 3.50943 7.77189C3.75776 7.88071 3.99492 8.00626 4.2014 8.17925C4.81244 8.68428 4.70084 9.52412 3.97539 9.8422C3.58756 10.0124 3.1774 10.0543 2.75608 10.0012C2.10597 9.92033 1.48376 9.75012 0.897824 9.446C0.554632 9.26742 0.454186 9.31486 0.336998 9.68595C0.236552 10.0068 0.147266 10.3305 0.0579804 10.6541C-0.0619973 11.0894 -0.0173547 11.1926 0.398382 11.3963C0.928516 11.653 1.49492 11.7842 2.07249 11.8762C2.5245 11.9488 2.53845 11.9683 2.54403 12.4371C2.54682 12.6491 2.54682 12.864 2.54961 13.076C2.5524 13.3439 2.68075 13.5001 2.95698 13.5057C3.26948 13.5113 3.58477 13.5113 3.89727 13.5029C4.15396 13.4973 4.2851 13.3578 4.2851 13.0983C4.2851 12.8082 4.29905 12.5152 4.28789 12.225C4.27394 11.9293 4.40229 11.7786 4.68689 11.7005C5.34258 11.5219 5.90061 11.1703 6.3303 10.6458C7.5245 9.19488 7.0697 7.07155 5.37885 6.13684Z" fill="#A06205"/>
</svg>
