<svg width="17" height="17" viewBox="0 0 17 17" fill="none" xmlns="http://www.w3.org/2000/svg">
<path d="M15.3571 15.612H9.14861M1 16L5.30656 14.3437C5.58201 14.2377 5.71974 14.1847 5.84859 14.1156C5.96305 14.0541 6.07216 13.9832 6.17479 13.9036C6.29033 13.8139 6.39467 13.7095 6.60336 13.5009L15.3571 4.74715C16.2143 3.88994 16.2143 2.50012 15.3571 1.64291C14.4999 0.785702 13.1101 0.785694 12.2528 1.64291L3.49912 10.3966C3.29044 10.6053 3.18609 10.7097 3.09644 10.8252C3.0168 10.9278 2.94589 11.0369 2.88445 11.1514C2.81529 11.2802 2.76231 11.418 2.65636 11.6935L1 16ZM1 16L2.59722 11.8473C2.71152 11.5502 2.76866 11.4015 2.86668 11.3335C2.95235 11.274 3.05834 11.2515 3.16078 11.2711C3.27799 11.2934 3.39055 11.406 3.61569 11.6312L5.36887 13.3844C5.59401 13.6095 5.70658 13.722 5.72896 13.8392C5.74852 13.9417 5.72603 14.0477 5.66655 14.1333C5.59849 14.2314 5.44991 14.2885 5.15274 14.4028L1 16Z" stroke="#A06205" stroke-width="1.5" stroke-linecap="round" stroke-linejoin="round"/>
</svg>
