<svg width="31" height="31" viewBox="0 0 31 31" fill="none" xmlns="http://www.w3.org/2000/svg">
<path d="M25.598 5.25926C24.2226 3.87443 22.5854 2.77671 20.7818 2.02992C18.9781 1.28313 17.0438 0.902208 15.0914 0.909276C12.4815 0.911826 9.91783 1.59965 7.65747 2.90386C5.39712 4.20806 3.51933 6.08289 2.21213 8.34055C0.904921 10.5982 0.214226 13.1596 0.209161 15.7679C0.204114 18.3764 0.884902 20.9402 2.18334 23.203L0.0820312 30.9092L7.96196 28.8467C10.1378 30.0564 12.5828 30.7012 15.0726 30.7217C19.0308 30.7219 22.8287 29.1594 25.6396 26.3747C28.4507 23.5901 30.0473 19.8085 30.082 15.853C30.0689 13.8792 29.6659 11.9274 28.8965 10.1095C28.1271 8.29161 27.006 6.64338 25.598 5.25926ZM15.0914 28.1529C12.8732 28.1544 10.6956 27.5586 8.78747 26.4279L8.33719 26.1467L3.66552 27.3842L4.9038 22.828L4.60361 22.3592C3.00745 19.7843 2.41175 16.7136 2.92935 13.729C3.44695 10.7445 5.0419 8.0533 7.41205 6.16531C9.78222 4.27731 12.7629 3.32363 15.7895 3.48494C18.8162 3.64622 21.6787 4.9113 23.8344 7.0405C26.1909 9.34335 27.5398 12.4846 27.5867 15.778C27.5571 19.0703 26.2274 22.2177 23.8873 24.5353C21.5473 26.8528 18.386 28.1531 15.0914 28.1529ZM21.8644 18.8905C21.4892 18.703 19.6693 17.803 19.3316 17.6905C18.9939 17.578 18.7312 17.503 18.4873 17.878C18.1203 18.3807 17.7256 18.8625 17.3053 19.3217C17.0989 19.5842 16.8738 19.603 16.4985 19.3217C14.3591 18.4769 12.5768 16.9206 11.4516 14.9155C11.0576 14.2592 11.8269 14.2967 12.5398 12.8905C12.5925 12.7891 12.6199 12.6766 12.6199 12.5624C12.6199 12.4482 12.5925 12.3357 12.5398 12.2343C12.5398 12.0467 11.6955 10.2092 11.3954 9.47799C11.0952 8.74675 10.795 8.85925 10.5511 8.8405H9.81937C9.62978 8.8434 9.44301 8.88673 9.27152 8.96756C9.10004 9.0484 8.94781 9.16489 8.825 9.30924C8.40402 9.71833 8.07567 10.2128 7.86207 10.7594C7.64847 11.306 7.55458 11.892 7.58672 12.478C7.70436 13.8807 8.23293 15.2176 9.10642 16.3217C10.7053 18.7139 12.8965 20.6517 15.4666 21.9467C16.8147 22.7331 18.3813 23.062 19.9319 22.8842C20.4483 22.7818 20.9374 22.572 21.3672 22.2683C21.7972 21.9647 22.1584 21.574 22.4272 21.1217C22.6764 20.5697 22.7548 19.956 22.6524 19.3592C22.4835 19.1717 22.2396 19.078 21.8644 18.8905Z" fill="#A06205"/>
</svg>
