<svg width="35" height="35" viewBox="0 0 35 35" fill="none" xmlns="http://www.w3.org/2000/svg">
<path d="M12.4973 23.3624C12.2202 23.3624 11.9432 23.2603 11.7244 23.0415C11.3015 22.6186 11.3015 21.9186 11.7244 21.4957L21.2765 11.9437C21.6994 11.5207 22.3994 11.5207 22.8223 11.9437C23.2452 12.3666 23.2452 13.0666 22.8223 13.4895L13.2702 23.0415C13.0515 23.2603 12.7744 23.3624 12.4973 23.3624Z" fill="#A06205"/>
<path d="M13.0955 16.2022C11.5059 16.2022 10.208 14.9043 10.208 13.3148C10.208 11.7252 11.5059 10.4272 13.0955 10.4272C14.6851 10.4272 15.983 11.7252 15.983 13.3148C15.983 14.9043 14.6851 16.2022 13.0955 16.2022ZM13.0955 12.6293C12.7164 12.6293 12.3955 12.9356 12.3955 13.3294C12.3955 13.7231 12.7018 14.0293 13.0955 14.0293C13.4893 14.0293 13.7955 13.7231 13.7955 13.3294C13.7955 12.9356 13.4747 12.6293 13.0955 12.6293Z" fill="#A06205"/>
<path d="M22.6336 24.5582C21.044 24.5582 19.7461 23.2603 19.7461 21.6707C19.7461 20.0811 21.044 18.7832 22.6336 18.7832C24.2231 18.7832 25.5211 20.0811 25.5211 21.6707C25.5211 23.2603 24.2231 24.5582 22.6336 24.5582ZM22.6336 20.9853C22.2544 20.9853 21.9336 21.2915 21.9336 21.6853C21.9336 22.079 22.2398 22.3853 22.6336 22.3853C23.0273 22.3853 23.3336 22.079 23.3336 21.6853C23.3336 21.2915 23.0273 20.9853 22.6336 20.9853Z" fill="#A06205"/>
<path d="M17.5003 33.1769C8.85241 33.1769 1.82324 26.1478 1.82324 17.4998C1.82324 8.85192 8.85241 1.82275 17.5003 1.82275C26.1482 1.82275 33.1774 8.85192 33.1774 17.4998C33.1774 26.1478 26.1482 33.1769 17.5003 33.1769ZM17.5003 4.01025C10.0628 4.01025 4.01074 10.0623 4.01074 17.4998C4.01074 24.9373 10.0628 30.9894 17.5003 30.9894C24.9378 30.9894 30.9899 24.9373 30.9899 17.4998C30.9899 10.0623 24.9378 4.01025 17.5003 4.01025Z" fill="#A06205"/>
</svg>
