<svg width="19" height="11" viewBox="0 0 19 11" fill="none" xmlns="http://www.w3.org/2000/svg">
<line y1="-0.5" x2="2.67104" y2="-0.5" transform="matrix(0.889167 0.457583 -0.436963 0.899479 7 4)" stroke="#A06205"/>
<line y1="-0.5" x2="2.67104" y2="-0.5" transform="matrix(0.889167 0.457583 -0.436963 0.899479 7 4)" stroke="#A06205"/>
<line y1="-0.5" x2="2.67104" y2="-0.5" transform="matrix(0.889167 0.457583 -0.436963 0.899479 7 4)" stroke="#A06205"/>
<line y1="-0.5" x2="2.67104" y2="-0.5" transform="matrix(0.889167 0.457583 -0.436963 0.899479 7 4)" stroke="#A06205"/>
<line y1="-0.5" x2="2.67104" y2="-0.5" transform="matrix(0.889167 0.457583 -0.436963 0.899479 5 5)" stroke="#A06205"/>
<line y1="-0.5" x2="2.67104" y2="-0.5" transform="matrix(0.889167 0.457583 -0.436963 0.899479 5 5)" stroke="#A06205"/>
<line y1="-0.5" x2="2.67104" y2="-0.5" transform="matrix(0.889167 0.457583 -0.436963 0.899479 5 5)" stroke="#A06205"/>
<line y1="-0.5" x2="2.67104" y2="-0.5" transform="matrix(0.889167 0.457583 -0.436963 0.899479 5 5)" stroke="#A06205"/>
<rect x="0.5" y="7.5" width="18" height="3" fill="white" stroke="#A06205"/>
<line x1="0.753694" y1="6.9389" x2="12.0137" y2="0.565065" stroke="#A06205"/>
<line x1="18.5" y1="7.00143" x2="18.4799" y2="0.00178593" stroke="#A06205"/>
<line x1="19" y1="0.5" x2="11.5187" y2="0.5" stroke="#A06205"/>
<path d="M9.21848 2.55026C8.97294 2.4239 8.67608 2.52282 8.55542 2.77121C8.43475 3.01959 8.53598 3.32338 8.78152 3.44974L9.21848 2.55026ZM8.78152 3.44974L11.1565 4.67196L11.5935 3.77248L9.21848 2.55026L8.78152 3.44974Z" fill="#A06205"/>
<path d="M9.21848 2.55026C8.97294 2.4239 8.67608 2.52282 8.55542 2.77121C8.43475 3.01959 8.53598 3.32338 8.78152 3.44974L9.21848 2.55026ZM8.78152 3.44974L11.1565 4.67196L11.5935 3.77248L9.21848 2.55026L8.78152 3.44974Z" fill="#A06205"/>
<path d="M9.21848 2.55026C8.97294 2.4239 8.67608 2.52282 8.55542 2.77121C8.43475 3.01959 8.53598 3.32338 8.78152 3.44974L9.21848 2.55026ZM8.78152 3.44974L11.1565 4.67196L11.5935 3.77248L9.21848 2.55026L8.78152 3.44974Z" fill="#A06205"/>
<path d="M9.21848 2.55026C8.97294 2.4239 8.67608 2.52282 8.55542 2.77121C8.43475 3.01959 8.53598 3.32338 8.78152 3.44974L9.21848 2.55026ZM8.78152 3.44974L11.1565 4.67196L11.5935 3.77248L9.21848 2.55026L8.78152 3.44974Z" fill="#A06205"/>
</svg>
