<svg width="15" height="15" viewBox="0 0 15 15" fill="none" xmlns="http://www.w3.org/2000/svg">
<path d="M6.67651 8.27349H5.79608C5.12108 8.27349 4.57521 7.71964 4.57521 7.03311C4.57521 6.79657 4.77477 6.60041 5.01542 6.60041C5.25608 6.60041 5.45564 6.79657 5.45564 7.03311C5.45564 7.2408 5.60825 7.40811 5.79608 7.40811H6.67651C6.81151 7.40811 6.91716 7.28695 6.91716 7.13695C6.91716 6.93503 6.88194 6.92349 6.74694 6.87734L5.33238 6.39272C4.82173 6.21964 4.56934 5.86772 4.56934 5.31964C4.56934 4.69657 5.07412 4.18311 5.69042 4.18311H6.57086C7.24586 4.18311 7.79173 4.73695 7.79173 5.42349C7.79173 5.66003 7.59216 5.85618 7.35151 5.85618C7.11086 5.85618 6.91129 5.66003 6.91129 5.42349C6.91129 5.2158 6.75868 5.04849 6.57086 5.04849H5.69042C5.55542 5.04849 5.44977 5.16964 5.44977 5.31964C5.44977 5.52157 5.48499 5.53311 5.61999 5.57926L7.03455 6.06388C7.54521 6.24272 7.79173 6.59464 7.79173 7.13695C7.7976 7.7658 7.29281 8.27349 6.67651 8.27349Z" fill="#A06205"/>
<path d="M6.18338 8.73518C5.94273 8.73518 5.74316 8.53902 5.74316 8.30249V7.87556C5.74316 7.63902 5.94273 7.44287 6.18338 7.44287C6.42403 7.44287 6.6236 7.63902 6.6236 7.87556V8.30249C6.6236 8.54479 6.42403 8.73518 6.18338 8.73518Z" fill="#A06205"/>
<path d="M6.18338 5.04292C5.94273 5.04292 5.74316 4.84677 5.74316 4.61023V4.16023C5.74316 3.92369 5.94273 3.72754 6.18338 3.72754C6.42403 3.72754 6.6236 3.92369 6.6236 4.16023V4.61023C6.6236 4.84677 6.42403 5.04292 6.18338 5.04292Z" fill="#A06205"/>
<path d="M6.17688 11.2619C3.34774 11.2619 1.04688 9.00032 1.04688 6.21955C1.04688 3.43878 3.34774 1.17725 6.17688 1.17725C9.00601 1.17725 11.3069 3.43878 11.3069 6.21955C11.3069 9.00032 9.00014 11.2619 6.17688 11.2619ZM6.17688 2.0484C3.83492 2.0484 1.92731 3.9234 1.92731 6.22532C1.92731 8.52725 3.83492 10.3965 6.17688 10.3965C8.51883 10.3965 10.4264 8.52148 10.4264 6.21955C10.4264 3.91763 8.51883 2.0484 6.17688 2.0484Z" fill="#A06205"/>
<path d="M10.3037 13.5695C9.21785 13.5695 8.19655 13.0503 7.56851 12.1734C7.42764 11.9772 7.47459 11.7061 7.67416 11.5676C7.87372 11.4292 8.14959 11.4753 8.29046 11.6715C8.75416 12.3176 9.50546 12.6984 10.3037 12.6984C11.6655 12.6984 12.7689 11.6138 12.7689 10.2753C12.7689 9.49647 12.3815 8.75801 11.7359 8.30224C11.5363 8.16377 11.4952 7.89262 11.6361 7.69647C11.777 7.50031 12.0529 7.45993 12.2524 7.59839C13.127 8.2157 13.6494 9.21377 13.6494 10.2753C13.6494 12.0984 12.1526 13.5695 10.3037 13.5695Z" fill="#A06205"/>
</svg>
