<svg width="24" height="24" viewBox="0 0 24 24" fill="none" xmlns="http://www.w3.org/2000/svg">
<path d="M22.4604 17.1698L21.1904 10.4798C21.0135 9.54446 20.5497 8.68744 19.8633 8.02791C19.1769 7.36839 18.302 6.93912 17.3604 6.7998C18.0727 7.75431 18.5117 8.88473 18.6304 10.0698L19.0904 14.6198C19.1573 15.2483 19.0951 15.8838 18.9077 16.4873C18.7203 17.0909 18.4115 17.6498 18.0004 18.1298C18.133 18.7252 18.4967 19.2436 19.0114 19.5708C19.5262 19.8981 20.1499 20.0074 20.7454 19.8748C21.3408 19.7422 21.8591 19.3785 22.1864 18.8637C22.5136 18.3489 22.623 17.7252 22.4904 17.1298L22.4604 17.1698Z" stroke="#A06205" stroke-width="1.5" stroke-linecap="round" stroke-linejoin="round"/>
<path d="M4.91037 14.6198L5.37037 10.0698C5.48901 8.88473 5.92804 7.75431 6.64037 6.7998C5.6987 6.93912 4.82385 7.36839 4.13744 8.02791C3.45103 8.68744 2.98717 9.54446 2.81037 10.4798L1.54037 17.1698C1.40776 17.7652 1.51711 18.3889 1.84436 18.9037C2.17161 19.4185 2.68995 19.7822 3.28537 19.9148C3.88078 20.0474 4.50448 19.9381 5.01927 19.6108C5.53405 19.2836 5.89776 18.7652 6.03037 18.1698C5.60871 17.6875 5.29152 17.123 5.09876 16.512C4.906 15.9011 4.84186 15.2568 4.91037 14.6198Z" stroke="#A06205" stroke-width="1.5" stroke-linecap="round" stroke-linejoin="round"/>
<path d="M14.4204 19.7399H9.58041C8.92736 19.7429 8.28094 19.6089 7.68288 19.3466C7.08482 19.0843 6.54843 18.6995 6.10834 18.217C5.66825 17.7345 5.33425 17.1651 5.12791 16.5455C4.92157 15.9259 4.84747 15.2699 4.91041 14.6199L5.37041 10.0699C5.52981 8.4237 6.29779 6.89629 7.52405 5.78655C8.75031 4.67682 10.3466 4.06465 12.0004 4.06986C13.6543 4.06465 15.2505 4.67682 16.4768 5.78655C17.703 6.89629 18.471 8.4237 18.6304 10.0699L19.0904 14.6199C19.1533 15.2699 19.0792 15.9259 18.8729 16.5455C18.6666 17.1651 18.3326 17.7345 17.8925 18.217C17.4524 18.6995 16.916 19.0843 16.3179 19.3466C15.7199 19.6089 15.0735 19.7429 14.4204 19.7399Z" stroke="#A06205" stroke-width="1.5" stroke-linecap="round" stroke-linejoin="round"/>
<path d="M12.0003 16.1398L10.5703 14.5298C10.5703 14.1983 10.702 13.8803 10.9364 13.6459C11.1708 13.4115 11.4888 13.2798 11.8203 13.2798H12.1803C12.5118 13.2798 12.8298 13.4115 13.0642 13.6459C13.2986 13.8803 13.4303 14.1983 13.4303 14.5298L12.0003 16.1398Z" stroke="#A06205" stroke-width="1.5" stroke-linecap="round" stroke-linejoin="round"/>
<path d="M12 16.1401V19.7401" stroke="#A06205" stroke-width="1.5" stroke-linecap="round" stroke-linejoin="round"/>
<path d="M8.84961 10.1401V10.9801" stroke="#A06205" stroke-width="2" stroke-linecap="round" stroke-linejoin="round"/>
<path d="M15.1504 10.1401V10.9801" stroke="#A06205" stroke-width="2" stroke-linecap="round" stroke-linejoin="round"/>
</svg>
