<svg width="15" height="15" viewBox="0 0 15 15" fill="none" xmlns="http://www.w3.org/2000/svg">
<path d="M13.7308 5.4998V8.96134C13.7308 10.4036 13.4373 11.4133 12.7799 12.0652L9.03516 8.38442L13.5723 3.9248C13.678 4.38057 13.7308 4.8998 13.7308 5.4998Z" stroke="#A06205" stroke-width="0.75" stroke-linecap="round" stroke-linejoin="round"/>
<path d="M13.5719 3.92489L4.49751 12.8441C2.73077 12.446 1.99121 11.246 1.99121 8.96143V5.49989C1.99121 2.61527 3.16512 1.46143 6.09991 1.46143H9.62165C11.946 1.46143 13.1669 2.18835 13.5719 3.92489Z" stroke="#A06205" stroke-width="0.75" stroke-linecap="round" stroke-linejoin="round"/>
<path d="M12.78 12.0655C12.1168 12.7117 11.0896 13.0002 9.62218 13.0002H6.10044C5.49001 13.0002 4.96174 12.9482 4.49805 12.8444L9.03523 8.38477L12.78 12.0655Z" stroke="#A06205" stroke-width="0.75" stroke-linecap="round" stroke-linejoin="round"/>
<path d="M4.47957 4.91134C4.8787 3.22096 7.46132 3.22096 7.86045 4.91134C8.08936 5.90365 7.45544 6.74596 6.89783 7.26519C6.49283 7.64596 5.85306 7.64596 5.44219 7.26519C4.88458 6.74596 4.24479 5.90365 4.47957 4.91134Z" stroke="#A06205" stroke-width="0.75"/>
<path d="M6.15549 5.32704H6.16076" stroke="#A06205" stroke-width="0.75" stroke-linecap="round" stroke-linejoin="round"/>
</svg>
