<svg width="12" height="12" viewBox="0 0 12 12" fill="none" xmlns="http://www.w3.org/2000/svg">
<path d="M6.8492 8.11519H5.96643C5.34191 8.11519 4.83008 7.59827 4.83008 6.96134C4.83008 6.77211 4.98973 6.61519 5.18225 6.61519C5.37477 6.61519 5.53443 6.77211 5.53443 6.96134C5.53443 7.21519 5.72695 7.42288 5.96643 7.42288H6.8492C7.03233 7.42288 7.1779 7.26134 7.1779 7.06288C7.1779 6.81365 7.10747 6.77673 6.94782 6.72134L5.53443 6.23673C5.2339 6.13057 4.83008 5.91827 4.83008 5.23981C4.83008 4.66288 5.29495 4.1875 5.86313 4.1875H6.7459C7.37042 4.1875 7.88225 4.70442 7.88225 5.34135C7.88225 5.53058 7.7226 5.6875 7.53008 5.6875C7.33756 5.6875 7.1779 5.53058 7.1779 5.34135C7.1779 5.0875 6.98538 4.87981 6.7459 4.87981H5.86313C5.68 4.87981 5.53443 5.04135 5.53443 5.23981C5.53443 5.48904 5.60486 5.52596 5.76451 5.58134L7.1779 6.06596C7.47843 6.17211 7.88225 6.38442 7.88225 7.06288C7.88225 7.64442 7.41738 8.11519 6.8492 8.11519Z" fill="#A06205"/>
<path d="M6.35608 8.57662C6.16356 8.57662 6.00391 8.4197 6.00391 8.23047V4.07662C6.00391 3.88739 6.16356 3.73047 6.35608 3.73047C6.5486 3.73047 6.70825 3.88739 6.70825 4.07662V8.23047C6.70825 8.4197 6.5486 8.57662 6.35608 8.57662Z" fill="#A06205"/>
<path d="M6.35642 11.1155C3.5719 11.1155 1.30859 8.89084 1.30859 6.15392C1.30859 3.417 3.5719 1.19238 6.35642 1.19238C6.54894 1.19238 6.70859 1.34931 6.70859 1.53854C6.70859 1.72777 6.54894 1.88469 6.35642 1.88469C3.96164 1.88469 2.01294 3.80008 2.01294 6.15392C2.01294 8.50777 3.96164 10.4232 6.35642 10.4232C8.7512 10.4232 10.6999 8.50777 10.6999 6.15392C10.6999 5.96469 10.8595 5.80777 11.0521 5.80777C11.2446 5.80777 11.4042 5.96469 11.4042 6.15392C11.4042 8.89084 9.14094 11.1155 6.35642 11.1155Z" fill="#A06205"/>
<path d="M11.0517 3.73084C10.8592 3.73084 10.6995 3.57392 10.6995 3.38469V1.88469H9.17346C8.98094 1.88469 8.82129 1.72777 8.82129 1.53854C8.82129 1.34931 8.98094 1.19238 9.17346 1.19238H11.0517C11.2442 1.19238 11.4039 1.34931 11.4039 1.53854V3.38469C11.4039 3.57392 11.2442 3.73084 11.0517 3.73084Z" fill="#A06205"/>
<path d="M8.70452 4.19221C8.6153 4.19221 8.52608 4.1599 8.45565 4.09067C8.31947 3.95682 8.31947 3.73528 8.45565 3.60144L10.8035 1.29374C10.9396 1.1599 11.165 1.1599 11.3012 1.29374C11.4374 1.42759 11.4374 1.64913 11.3012 1.78297L8.95338 4.09067C8.88295 4.1599 8.79373 4.19221 8.70452 4.19221Z" fill="#A06205"/>
</svg>
