<svg width="11" height="14" viewBox="0 0 11 14" fill="none" xmlns="http://www.w3.org/2000/svg">
<path d="M9.1495 4.64863C10.7794 6.92659 9.53251 9.53575 8.92947 10.5536C8.84105 10.6959 8.72223 10.8174 8.58149 10.9095C8.44067 11.0015 8.28135 11.062 8.11453 11.0866C6.93286 11.2886 3.99096 11.5148 2.41 9.23682C0.853479 7.08815 0.918673 3.30772 1.05721 1.50636C1.06267 1.37216 1.10021 1.24116 1.16674 1.12414C1.23327 1.00713 1.32688 0.907445 1.43987 0.833304C1.55286 0.759163 1.68199 0.712682 1.81665 0.697686C1.95131 0.68269 2.08764 0.699608 2.21441 0.747047C3.96651 1.24788 7.6174 2.49994 9.1495 4.64863Z" stroke="#A06205" stroke-linecap="round" stroke-linejoin="round"/>
<path d="M5.21777 5.36523C6.8311 7.77339 8.24706 10.3829 9.44386 13.1537" stroke="#A06205" stroke-linecap="round" stroke-linejoin="round"/>
</svg>
