<svg width="15" height="14" viewBox="0 0 15 14" fill="none" xmlns="http://www.w3.org/2000/svg">
<path d="M3.52423 6.20196C3.10749 6.20196 2.68488 6.05196 2.36206 5.74619C1.28206 4.73658 0.847709 3.63465 1.1001 2.55581C1.39945 1.28658 2.53227 0.721191 3.52423 0.721191C4.51619 0.721191 5.65488 1.29235 5.94836 2.55581C6.20075 3.63465 5.76053 4.73658 4.6864 5.74619C4.36358 6.05196 3.94684 6.20196 3.52423 6.20196ZM1.95706 2.75196C1.73401 3.71542 2.38553 4.56927 2.97249 5.11735C3.28358 5.41158 3.77075 5.40581 4.08184 5.11735C4.6688 4.56927 5.32032 3.71542 5.0914 2.74619C4.89184 1.89235 4.12293 1.58658 3.5301 1.58658C2.9314 1.58658 2.16249 1.89235 1.95706 2.75196Z" fill="#A06205"/>
<path d="M3.54789 3.5767C3.22507 3.5767 2.96094 3.31708 2.96094 2.99977C2.96094 2.68247 3.2192 2.42285 3.54789 2.42285H3.55376C3.87659 2.42285 4.14072 2.68247 4.14072 2.99977C4.14072 3.31708 3.87659 3.5767 3.54789 3.5767Z" fill="#A06205"/>
<path d="M11.166 13.1252C10.7493 13.1252 10.3267 12.9752 9.99798 12.6694C8.91212 11.6598 8.4719 10.5579 8.73016 9.47329C9.02951 8.20983 10.1682 7.63867 11.166 7.63867C12.1639 7.63867 13.3025 8.20983 13.6019 9.47329C13.8543 10.5521 13.4141 11.6598 12.3282 12.6637C12.0054 12.9752 11.5886 13.1252 11.166 13.1252ZM11.166 8.50983C10.5673 8.50983 9.79255 8.8156 9.58712 9.67521C9.3582 10.6387 10.0156 11.4983 10.6026 12.0464C10.9136 12.3406 11.4067 12.3406 11.7236 12.0464C12.3106 11.4983 12.968 10.6444 12.7391 9.68098C12.5454 8.8156 11.7706 8.50983 11.166 8.50983Z" fill="#A06205"/>
<path d="M11.1895 10.5C10.8667 10.5 10.6025 10.2404 10.6025 9.92311C10.6025 9.60581 10.8608 9.34619 11.1895 9.34619H11.1954C11.5182 9.34619 11.7823 9.60581 11.7823 9.92311C11.7823 10.2404 11.5123 10.5 11.1895 10.5Z" fill="#A06205"/>
<path d="M7.35676 11.3945H5.78372C5.10285 11.3945 4.51002 10.9906 4.27524 10.3675C4.03459 9.74446 4.21067 9.05792 4.72133 8.61369L9.41111 4.58099C9.69285 4.33869 9.69872 4.00984 9.61654 3.78484C9.5285 3.55984 9.30546 3.31753 8.9298 3.31753H7.35676C7.11611 3.31753 6.91654 3.12138 6.91654 2.88484C6.91654 2.6483 7.11611 2.45215 7.35676 2.45215H8.9298C9.61067 2.45215 10.2035 2.85599 10.4383 3.47907C10.6789 4.10215 10.5028 4.78869 9.9922 5.23292L5.30241 9.26561C5.02067 9.50792 5.0148 9.83676 5.09698 10.0618C5.18502 10.2868 5.40806 10.5291 5.78372 10.5291H7.35676C7.59741 10.5291 7.79698 10.7252 7.79698 10.9618C7.79698 11.1983 7.59741 11.3945 7.35676 11.3945Z" fill="#A06205"/>
<path d="M7.35676 11.3945H5.78372C5.10285 11.3945 4.51002 10.9906 4.27524 10.3675C4.03459 9.74446 4.21067 9.05792 4.72133 8.61369L9.41111 4.58099C9.69285 4.33869 9.69872 4.00984 9.61654 3.78484C9.5285 3.55984 9.30546 3.31753 8.9298 3.31753H7.35676C7.11611 3.31753 6.91654 3.12138 6.91654 2.88484C6.91654 2.6483 7.11611 2.45215 7.35676 2.45215H8.9298C9.61067 2.45215 10.2035 2.85599 10.4383 3.47907C10.6789 4.10215 10.5028 4.78869 9.9922 5.23292L5.30241 9.26561C5.02067 9.50792 5.0148 9.83676 5.09698 10.0618C5.18502 10.2868 5.40806 10.5291 5.78372 10.5291H7.35676C7.59741 10.5291 7.79698 10.7252 7.79698 10.9618C7.79698 11.1983 7.59741 11.3945 7.35676 11.3945Z" fill="#A06205"/>
</svg>
