<svg width="26" height="22" viewBox="0 0 26 22" fill="none" xmlns="http://www.w3.org/2000/svg">
<mask id="path-1-inside-1_252_1490" fill="white">
<path d="M20.4408 20.8004C20.3638 21.0811 20.1097 21.436 19.8011 21.4688L19.7844 21.4701C19.5196 21.4929 19.2399 21.476 18.9733 21.476L6.89909 21.4763C6.54161 21.4763 6.16547 21.5496 5.86852 21.3029C5.73756 21.194 5.56714 20.9479 5.5585 20.7729L5.55179 16.6362C5.55926 16.3792 5.60927 16.1212 5.62219 15.8628L5.69092 14.0061C5.69596 13.891 5.71661 13.7803 5.7237 13.6662L5.8761 11.1151C5.88132 11.0412 5.89963 10.9706 5.90464 10.8966L5.92725 10.2652C5.93408 10.121 5.95356 9.98702 5.93733 9.84262C5.63168 10.1036 5.42303 10.4453 5.12724 10.7097C4.44099 11.323 3.89133 10.8338 3.38968 10.2701L2.63634 9.37603C1.70806 8.21137 0.874425 6.71854 0.330001 5.33236C0.0700086 4.6704 -0.148148 4.06814 0.41292 3.46841C0.693719 3.16826 1.15025 3.02397 1.51722 2.86469L2.38702 2.44847C3.98965 1.58978 5.15815 0.611055 7.04355 0.518066L7.85619 0.526504C7.99693 0.533799 8.13425 0.560488 8.27417 0.571885L8.78426 0.595615C8.89268 0.600889 8.99514 0.635254 9.10312 0.635693C9.7732 0.638389 9.99721 0.36499 10.4058 1.01711C11.5734 2.88083 13.9246 3.17588 15.3285 1.37805C15.481 1.18281 15.5851 0.954737 15.7387 0.763018C15.9558 0.492022 16.1706 0.590459 16.4656 0.59749L17.3109 0.592539C17.4665 0.588467 17.6264 0.590752 17.7811 0.573262C19.9706 0.325732 21.0057 0.947881 22.8912 2.03796L24.6529 2.94959C25.4443 3.29825 25.9365 3.46776 25.9329 4.40374C25.9327 4.47247 25.9367 4.55652 25.9151 4.62235L25.8024 4.98687C25.144 6.88536 24.0067 8.67593 22.6849 10.1808C22.4007 10.5044 22.112 10.8902 21.6587 10.9605C20.9274 11.0739 20.6045 10.2487 20.0426 9.83682C20.0165 10.0049 20.054 10.1651 20.0674 10.3321L20.212 12.5677C20.2184 12.6736 20.245 12.7752 20.2508 12.8823L20.2695 13.597C20.2733 13.6759 20.2899 13.7504 20.2945 13.8289L20.3833 16.2149C20.3855 16.3601 20.4089 16.5025 20.4134 16.647L20.4408 20.8004ZM6.9803 1.38443C6.25189 1.42021 5.52275 1.64553 4.89322 2.01657L5.69889 4.67321C5.84798 5.18371 5.92863 5.7291 6.03477 6.24971L6.28532 7.89801C6.33387 8.16792 6.37476 8.40543 6.51111 8.6517C6.76113 9.10328 6.79016 9.13234 6.78852 9.67243L6.71997 11.0637L6.46778 15.2658C6.46049 15.4003 6.43359 15.5302 6.42946 15.6656L6.41341 16.7489C6.41021 16.8472 6.39152 16.9433 6.38804 17.0416L6.38341 17.8136C6.38341 17.895 6.36662 18.0186 6.39205 18.0951L16.6355 18.0918C16.9213 18.0919 17.2213 18.033 17.3486 18.3609L17.3595 18.3831C17.444 18.5689 17.3353 18.7793 17.1896 18.8946L17.1756 18.906C17.0335 19.02 16.3537 18.9565 16.1548 18.9566L6.38915 18.9596C6.36401 19.3618 6.34957 20.2157 6.39287 20.6167L12.2604 20.6188L19.6055 20.6178L19.6029 17.6489C19.6007 17.5156 19.5779 17.385 19.5757 17.2517L19.5277 15.2376C19.5253 15.1613 19.5108 15.0861 19.5077 15.0098L19.4378 13.3996C19.4315 13.2929 19.4095 13.189 19.4034 13.0815L19.2916 11.4272C19.2675 11.095 19.227 10.7142 19.2187 10.3879L19.2068 9.88773C19.1868 9.25486 19.1205 9.27774 19.4498 8.71489C19.7318 8.23267 19.7413 7.71045 19.8166 7.16948L20.0023 6.06593C20.206 5.03588 20.4578 4.02124 20.772 3.01914L21.1183 2.03485C20.3148 1.5412 19.4031 1.36785 18.4723 1.38675L17.8433 1.42548C17.5082 3.3993 15.7565 4.37594 14.1178 5.15541L13.381 5.49361C13.0596 5.62882 12.9863 5.63802 12.6759 5.50694L11.251 4.84946C9.98487 4.21284 8.32989 3.06663 8.19984 1.51706C8.19639 1.4759 8.21338 1.42571 8.16814 1.41599L6.9803 1.38443ZM9.65347 1.4425C9.46148 1.47259 9.27665 1.49529 9.08165 1.49263C9.04679 1.53628 9.14411 1.80558 9.16394 1.85942C9.60176 3.04762 10.8652 3.71825 11.9345 4.24223L13.0022 4.70626C14.2148 4.22799 15.5249 3.60651 16.3866 2.59814C16.5613 2.36787 16.9538 1.75642 16.9622 1.45199L16.3457 1.43324C16.1227 1.70632 15.937 2.00989 15.6947 2.26961C14.941 3.07724 13.5884 3.64439 12.4692 3.4155C11.2506 3.16627 10.3264 2.46593 9.65347 1.4425ZM4.14322 2.42339L3.42003 2.85344C2.98356 3.11125 2.527 3.37765 2.05418 3.56289C2.14532 3.77594 2.2701 3.97653 2.36596 4.18853C2.68705 4.89848 3.04945 5.59639 3.45149 6.2643L4.6841 8.09772L5.52712 9.11752L5.74403 8.93585L5.66666 8.77067C5.51959 8.5058 5.47963 8.15907 5.43715 7.86265L5.13677 5.99649C5.06543 5.67186 4.26451 2.48412 4.15321 2.42559L4.14322 2.42339ZM21.8561 2.43104C21.702 2.82851 21.5808 3.25829 21.4642 3.66851L20.9113 5.77788L20.56 7.87993C20.512 8.24992 20.4529 8.61376 20.2761 8.94719L20.4889 9.10888L21.3125 8.10689L22.0542 7.06357C22.4592 6.45177 22.8339 5.80255 23.1666 5.14858L23.9072 3.53978C23.4197 3.34557 22.3163 2.74586 21.8561 2.43104ZM24.6692 3.88718C23.9906 5.56888 23.1024 7.13951 22.0149 8.59038C21.7342 8.96497 21.4668 9.34319 21.1191 9.66092C21.2165 9.79609 21.359 10.0301 21.519 10.0881L21.5534 10.0845C21.7806 9.96185 21.9839 9.67803 22.1546 9.48373C23.22 8.27084 24.5196 6.25568 24.9977 4.66261C25.1406 4.18642 25.1446 4.10444 24.6692 3.88718ZM1.30125 3.9151C1.01007 4.05707 0.840935 4.17736 0.939256 4.51226L0.955076 4.56508C0.972332 4.62063 0.983143 4.67641 1.00523 4.73052L1.10909 5.00896C1.16581 5.19783 1.27301 5.41454 1.36192 5.58903L1.93825 6.75238C2.34035 7.53106 2.84891 8.26442 3.39334 8.94854L3.89947 9.56831C4.06655 9.75528 4.23489 9.97967 4.45274 10.109L4.49669 10.0923C4.63673 10.0034 4.76543 9.82815 4.88059 9.70457C3.84302 8.53958 2.8304 6.99054 2.12153 5.62038L1.30125 3.9151Z"/>
</mask>
<path d="M20.4408 20.8004C20.3638 21.0811 20.1097 21.436 19.8011 21.4688L19.7844 21.4701C19.5196 21.4929 19.2399 21.476 18.9733 21.476L6.89909 21.4763C6.54161 21.4763 6.16547 21.5496 5.86852 21.3029C5.73756 21.194 5.56714 20.9479 5.5585 20.7729L5.55179 16.6362C5.55926 16.3792 5.60927 16.1212 5.62219 15.8628L5.69092 14.0061C5.69596 13.891 5.71661 13.7803 5.7237 13.6662L5.8761 11.1151C5.88132 11.0412 5.89963 10.9706 5.90464 10.8966L5.92725 10.2652C5.93408 10.121 5.95356 9.98702 5.93733 9.84262C5.63168 10.1036 5.42303 10.4453 5.12724 10.7097C4.44099 11.323 3.89133 10.8338 3.38968 10.2701L2.63634 9.37603C1.70806 8.21137 0.874425 6.71854 0.330001 5.33236C0.0700086 4.6704 -0.148148 4.06814 0.41292 3.46841C0.693719 3.16826 1.15025 3.02397 1.51722 2.86469L2.38702 2.44847C3.98965 1.58978 5.15815 0.611055 7.04355 0.518066L7.85619 0.526504C7.99693 0.533799 8.13425 0.560488 8.27417 0.571885L8.78426 0.595615C8.89268 0.600889 8.99514 0.635254 9.10312 0.635693C9.7732 0.638389 9.99721 0.36499 10.4058 1.01711C11.5734 2.88083 13.9246 3.17588 15.3285 1.37805C15.481 1.18281 15.5851 0.954737 15.7387 0.763018C15.9558 0.492022 16.1706 0.590459 16.4656 0.59749L17.3109 0.592539C17.4665 0.588467 17.6264 0.590752 17.7811 0.573262C19.9706 0.325732 21.0057 0.947881 22.8912 2.03796L24.6529 2.94959C25.4443 3.29825 25.9365 3.46776 25.9329 4.40374C25.9327 4.47247 25.9367 4.55652 25.9151 4.62235L25.8024 4.98687C25.144 6.88536 24.0067 8.67593 22.6849 10.1808C22.4007 10.5044 22.112 10.8902 21.6587 10.9605C20.9274 11.0739 20.6045 10.2487 20.0426 9.83682C20.0165 10.0049 20.054 10.1651 20.0674 10.3321L20.212 12.5677C20.2184 12.6736 20.245 12.7752 20.2508 12.8823L20.2695 13.597C20.2733 13.6759 20.2899 13.7504 20.2945 13.8289L20.3833 16.2149C20.3855 16.3601 20.4089 16.5025 20.4134 16.647L20.4408 20.8004ZM6.9803 1.38443C6.25189 1.42021 5.52275 1.64553 4.89322 2.01657L5.69889 4.67321C5.84798 5.18371 5.92863 5.7291 6.03477 6.24971L6.28532 7.89801C6.33387 8.16792 6.37476 8.40543 6.51111 8.6517C6.76113 9.10328 6.79016 9.13234 6.78852 9.67243L6.71997 11.0637L6.46778 15.2658C6.46049 15.4003 6.43359 15.5302 6.42946 15.6656L6.41341 16.7489C6.41021 16.8472 6.39152 16.9433 6.38804 17.0416L6.38341 17.8136C6.38341 17.895 6.36662 18.0186 6.39205 18.0951L16.6355 18.0918C16.9213 18.0919 17.2213 18.033 17.3486 18.3609L17.3595 18.3831C17.444 18.5689 17.3353 18.7793 17.1896 18.8946L17.1756 18.906C17.0335 19.02 16.3537 18.9565 16.1548 18.9566L6.38915 18.9596C6.36401 19.3618 6.34957 20.2157 6.39287 20.6167L12.2604 20.6188L19.6055 20.6178L19.6029 17.6489C19.6007 17.5156 19.5779 17.385 19.5757 17.2517L19.5277 15.2376C19.5253 15.1613 19.5108 15.0861 19.5077 15.0098L19.4378 13.3996C19.4315 13.2929 19.4095 13.189 19.4034 13.0815L19.2916 11.4272C19.2675 11.095 19.227 10.7142 19.2187 10.3879L19.2068 9.88773C19.1868 9.25486 19.1205 9.27774 19.4498 8.71489C19.7318 8.23267 19.7413 7.71045 19.8166 7.16948L20.0023 6.06593C20.206 5.03588 20.4578 4.02124 20.772 3.01914L21.1183 2.03485C20.3148 1.5412 19.4031 1.36785 18.4723 1.38675L17.8433 1.42548C17.5082 3.3993 15.7565 4.37594 14.1178 5.15541L13.381 5.49361C13.0596 5.62882 12.9863 5.63802 12.6759 5.50694L11.251 4.84946C9.98487 4.21284 8.32989 3.06663 8.19984 1.51706C8.19639 1.4759 8.21338 1.42571 8.16814 1.41599L6.9803 1.38443ZM9.65347 1.4425C9.46148 1.47259 9.27665 1.49529 9.08165 1.49263C9.04679 1.53628 9.14411 1.80558 9.16394 1.85942C9.60176 3.04762 10.8652 3.71825 11.9345 4.24223L13.0022 4.70626C14.2148 4.22799 15.5249 3.60651 16.3866 2.59814C16.5613 2.36787 16.9538 1.75642 16.9622 1.45199L16.3457 1.43324C16.1227 1.70632 15.937 2.00989 15.6947 2.26961C14.941 3.07724 13.5884 3.64439 12.4692 3.4155C11.2506 3.16627 10.3264 2.46593 9.65347 1.4425ZM4.14322 2.42339L3.42003 2.85344C2.98356 3.11125 2.527 3.37765 2.05418 3.56289C2.14532 3.77594 2.2701 3.97653 2.36596 4.18853C2.68705 4.89848 3.04945 5.59639 3.45149 6.2643L4.6841 8.09772L5.52712 9.11752L5.74403 8.93585L5.66666 8.77067C5.51959 8.5058 5.47963 8.15907 5.43715 7.86265L5.13677 5.99649C5.06543 5.67186 4.26451 2.48412 4.15321 2.42559L4.14322 2.42339ZM21.8561 2.43104C21.702 2.82851 21.5808 3.25829 21.4642 3.66851L20.9113 5.77788L20.56 7.87993C20.512 8.24992 20.4529 8.61376 20.2761 8.94719L20.4889 9.10888L21.3125 8.10689L22.0542 7.06357C22.4592 6.45177 22.8339 5.80255 23.1666 5.14858L23.9072 3.53978C23.4197 3.34557 22.3163 2.74586 21.8561 2.43104ZM24.6692 3.88718C23.9906 5.56888 23.1024 7.13951 22.0149 8.59038C21.7342 8.96497 21.4668 9.34319 21.1191 9.66092C21.2165 9.79609 21.359 10.0301 21.519 10.0881L21.5534 10.0845C21.7806 9.96185 21.9839 9.67803 22.1546 9.48373C23.22 8.27084 24.5196 6.25568 24.9977 4.66261C25.1406 4.18642 25.1446 4.10444 24.6692 3.88718ZM1.30125 3.9151C1.01007 4.05707 0.840935 4.17736 0.939256 4.51226L0.955076 4.56508C0.972332 4.62063 0.983143 4.67641 1.00523 4.73052L1.10909 5.00896C1.16581 5.19783 1.27301 5.41454 1.36192 5.58903L1.93825 6.75238C2.34035 7.53106 2.84891 8.26442 3.39334 8.94854L3.89947 9.56831C4.06655 9.75528 4.23489 9.97967 4.45274 10.109L4.49669 10.0923C4.63673 10.0034 4.76543 9.82815 4.88059 9.70457C3.84302 8.53958 2.8304 6.99054 2.12153 5.62038L1.30125 3.9151Z" fill="#A06205" stroke="#A06205" stroke-width="3" mask="url(#path-1-inside-1_252_1490)"/>
</svg>
