<svg width="16" height="15" viewBox="0 0 16 15" fill="none" xmlns="http://www.w3.org/2000/svg">
<rect width="15.4957" height="13.8462" transform="translate(0.173828 0.84668)" fill="white"/>
<path d="M2.11719 7.31982V9.91021C2.11719 12.5006 3.27936 13.5391 6.17834 13.5391H9.6584C12.5574 13.5391 13.7196 12.5006 13.7196 9.91021V7.31982" stroke="#A06205" stroke-linecap="round" stroke-linejoin="round"/>
<path d="M7.92196 7.76972C9.10351 7.76972 9.97514 6.9101 9.85892 5.85433L9.43279 2.00049H6.41759L5.98501 5.85433C5.86879 6.9101 6.74042 7.76972 7.92196 7.76972Z" stroke="#A06205" stroke-linecap="round" stroke-linejoin="round"/>
<path d="M11.9953 7.76972C13.2995 7.76972 14.2551 6.82357 14.126 5.66395L13.9452 4.07741C13.7127 2.57741 13.0671 2.00049 11.3755 2.00049H9.40625L9.85821 6.04472C9.96797 6.99664 10.93 7.76972 11.9953 7.76972Z" stroke="#A06205" stroke-linecap="round" stroke-linejoin="round"/>
<path d="M3.81519 7.76972C4.88052 7.76972 5.84254 6.99664 5.94585 6.04472L6.08789 4.76972L6.3978 2.00049H4.42856C2.73695 2.00049 2.0913 2.57741 1.85887 4.07741L1.68454 5.66395C1.55541 6.82357 2.51098 7.76972 3.81519 7.76972Z" stroke="#A06205" stroke-linecap="round" stroke-linejoin="round"/>
<path d="M7.92175 10.6543C6.84351 10.6543 6.30762 11.1331 6.30762 12.0966V13.5389H9.53588V12.0966C9.53588 11.1331 8.99999 10.6543 7.92175 10.6543Z" stroke="#A06205" stroke-linecap="round" stroke-linejoin="round"/>
</svg>
