<svg width="15" height="15" viewBox="0 0 15 15" fill="none" xmlns="http://www.w3.org/2000/svg">
<path d="M7.4996 8.75H8.1246C8.8121 8.75 9.3746 8.1875 9.3746 7.5V1.25H3.7496C2.8121 1.25 1.99336 1.76874 1.56836 2.53124" stroke="#A06205" stroke-linecap="round" stroke-linejoin="round"/>
<path d="M1.25 10.625C1.25 11.6625 2.0875 12.5 3.125 12.5H3.75C3.75 11.8125 4.3125 11.25 5 11.25C5.6875 11.25 6.25 11.8125 6.25 12.5H8.75C8.75 11.8125 9.3125 11.25 10 11.25C10.6875 11.25 11.25 11.8125 11.25 12.5H11.875C12.9125 12.5 13.75 11.6625 13.75 10.625V8.75H11.875C11.5312 8.75 11.25 8.46875 11.25 8.125V6.25C11.25 5.90625 11.5312 5.625 11.875 5.625H12.6812L11.6125 3.75626C11.3875 3.36876 10.975 3.125 10.525 3.125H9.375V7.5C9.375 8.1875 8.8125 8.75 8.125 8.75H7.5" stroke="#A06205" stroke-linecap="round" stroke-linejoin="round"/>
<path d="M5 13.75C5.69036 13.75 6.25 13.1904 6.25 12.5C6.25 11.8096 5.69036 11.25 5 11.25C4.30964 11.25 3.75 11.8096 3.75 12.5C3.75 13.1904 4.30964 13.75 5 13.75Z" stroke="#A06205" stroke-linecap="round" stroke-linejoin="round"/>
<path d="M10 13.75C10.6904 13.75 11.25 13.1904 11.25 12.5C11.25 11.8096 10.6904 11.25 10 11.25C9.30964 11.25 8.75 11.8096 8.75 12.5C8.75 13.1904 9.30964 13.75 10 13.75Z" stroke="#A06205" stroke-linecap="round" stroke-linejoin="round"/>
<path d="M13.75 7.5V8.75H11.875C11.5312 8.75 11.25 8.46875 11.25 8.125V6.25C11.25 5.90625 11.5312 5.625 11.875 5.625H12.6812L13.75 7.5Z" stroke="#A06205" stroke-linecap="round" stroke-linejoin="round"/>
<path d="M1.25 5H5" stroke="#A06205" stroke-width="1.5" stroke-linecap="round" stroke-linejoin="round"/>
<path d="M1.25 6.875H3.75" stroke="#A06205" stroke-width="1.5" stroke-linecap="round" stroke-linejoin="round"/>
<path d="M1.25 8.75H2.5" stroke="#A06205" stroke-width="1.5" stroke-linecap="round" stroke-linejoin="round"/>
</svg>
