<svg width="24" height="24" viewBox="0 0 24 24" fill="none" xmlns="http://www.w3.org/2000/svg">
<path d="M5.3447 10.1227L5.77923 9.5114L5.77921 9.51139L5.3447 10.1227ZM12.2529 5.38135L12.9989 5.45931L12.9989 5.45928L12.2529 5.38135ZM18.4933 4.565C18.8053 4.29259 18.8375 3.8188 18.565 3.50677C18.2926 3.19473 17.8189 3.1626 17.5068 3.435L18.4933 4.565ZM15.0063 8.51865L15.3929 7.87596L15.3929 7.87595L15.0063 8.51865ZM18.4233 8.51865L18.5712 7.78337L18.5712 7.78336L18.4233 8.51865ZM13.9213 12.9325L14.6686 12.868L14.6686 12.868L13.9213 12.9325ZM14.3616 21.114C14.15 21.4701 14.2672 21.9303 14.6233 22.1419C14.9794 22.3535 15.4396 22.2363 15.6511 21.8802L14.3616 21.114ZM2.75244 15.7758C2.37277 15.9414 2.19925 16.3834 2.36486 16.7631C2.53047 17.1427 2.97251 17.3163 3.35217 17.1506L2.75244 15.7758ZM4.08006 16.026L3.79912 15.3306L3.79908 15.3306L4.08006 16.026ZM8.36185 15.4765L8.66464 14.7903L8.66463 14.7903L8.36185 15.4765ZM9.89085 18.2106L10.4335 17.6929L10.4335 17.6928L9.89085 18.2106ZM10.3416 21.592C10.1466 21.9575 10.2848 22.4118 10.6503 22.6068C11.0157 22.8017 11.4701 22.6635 11.665 22.2981L10.3416 21.592ZM12 22.75C17.9371 22.75 22.75 17.9371 22.75 12H21.25C21.25 17.1086 17.1086 21.25 12 21.25V22.75ZM22.75 12C22.75 6.06294 17.9371 1.25 12 1.25V2.75C17.1086 2.75 21.25 6.89136 21.25 12H22.75ZM12 1.25C6.06294 1.25 1.25 6.06294 1.25 12H2.75C2.75 6.89136 6.89136 2.75 12 2.75V1.25ZM1.25 12C1.25 17.9371 6.06294 22.75 12 22.75V21.25C6.89136 21.25 2.75 17.1086 2.75 12H1.25ZM2.32024 11.0984C3.79507 10.402 4.54996 10.478 4.91019 10.734L5.77921 9.51139C4.6947 8.74053 3.21978 9.01482 1.67976 9.74201L2.32024 11.0984ZM4.91017 10.734C5.02071 10.8126 5.16156 11.0015 5.37015 11.3899C5.54533 11.7161 5.78114 12.2119 6.05111 12.604C6.33022 13.0094 6.74514 13.4623 7.38151 13.6236C8.02842 13.7875 8.71087 13.6033 9.41872 13.1724L8.63878 11.8911C8.11433 12.2103 7.85558 12.1963 7.74998 12.1696C7.63385 12.1401 7.48497 12.0415 7.28659 11.7533C7.07907 11.4519 6.9237 11.1123 6.69164 10.6802C6.49297 10.3103 6.21049 9.81795 5.77923 9.5114L4.91017 10.734ZM9.41872 13.1724C10.0731 12.7741 10.5981 12.2848 10.6622 11.6054C10.7223 10.9684 10.329 10.459 10.1126 10.181C9.54672 9.45405 9.2256 9.11982 9.44504 8.49573L8.02996 7.99817C7.48525 9.54733 8.54205 10.6054 8.92897 11.1024C9.18897 11.4364 9.16578 11.497 9.16886 11.4645C9.17592 11.3896 9.21673 11.5393 8.63878 11.8911L9.41872 13.1724ZM9.44504 8.49573C9.57486 8.1265 9.74982 7.97346 9.92717 7.87886C10.1526 7.75858 10.4183 7.70896 10.8325 7.62791C11.1884 7.55828 11.7169 7.45613 12.1552 7.12848C12.6451 6.76228 12.9209 6.20568 12.9989 5.45931L11.507 5.30339C11.4606 5.74727 11.3303 5.87234 11.2571 5.92704C11.1324 6.02029 10.9408 6.07827 10.5445 6.15583C10.2065 6.22196 9.68762 6.30657 9.22118 6.55538C8.70662 6.82987 8.28221 7.28078 8.02996 7.99817L9.44504 8.49573ZM12.9989 5.45928C13.0575 4.89781 12.934 4.35977 12.5789 3.91001C12.2382 3.47846 11.7408 3.20004 11.182 3.02129C10.0815 2.66925 8.48923 2.62472 6.4876 2.8129L6.628 4.30631C8.58897 4.12195 9.9272 4.19477 10.725 4.44998C11.1154 4.57485 11.3092 4.72253 11.4016 4.83955C11.4797 4.93836 11.5313 5.07137 11.507 5.30342L12.9989 5.45928ZM17.5068 3.435C16.0704 4.68898 15.0414 5.74408 14.4835 6.58617C14.2104 6.99831 13.9909 7.44559 13.9606 7.89434C13.9445 8.13325 13.9815 8.38557 14.1046 8.62317C14.228 8.86118 14.4134 9.0372 14.6198 9.16135L15.3929 7.87595C15.384 7.87057 15.4121 7.88619 15.4364 7.93292C15.4604 7.97924 15.4563 8.00939 15.4572 7.99526C15.4611 7.93792 15.5081 7.7556 15.734 7.41463C16.174 6.7505 17.0725 5.80532 18.4933 4.565L17.5068 3.435ZM14.6198 9.16134C15.0364 9.41195 15.4328 9.53322 15.8297 9.55119C16.2114 9.56846 16.5454 9.48655 16.8076 9.4142C17.3381 9.26781 17.6924 9.13669 18.2755 9.25394L18.5712 7.78336C17.5776 7.58361 16.8694 7.84109 16.4086 7.96825C16.1751 8.03268 16.0313 8.05877 15.8975 8.05272C15.779 8.04735 15.6223 8.01395 15.3929 7.87596L14.6198 9.16134ZM18.2755 9.25393C18.4915 9.29737 18.5984 9.3889 18.6604 9.47476C18.7313 9.57299 18.7764 9.71282 18.7787 9.8752C18.781 10.0424 18.7371 10.1774 18.6955 10.2462C18.6496 10.3222 18.679 10.2228 18.8293 10.2228V11.7228C19.3944 11.7228 19.7774 11.3564 19.9795 11.0217C20.1859 10.6799 20.2842 10.2608 20.2785 9.85409C20.2727 9.44255 20.1594 8.98864 19.8768 8.59699C19.5852 8.19296 19.1435 7.89846 18.5712 7.78337L18.2755 9.25393ZM18.8293 10.2228C18.5415 10.2228 17.0917 10.0838 15.8694 10.2714C15.2461 10.3671 14.5531 10.5598 14.0183 10.978C13.4349 11.4342 13.0981 12.1158 13.1741 12.997L14.6686 12.868C14.6365 12.4959 14.7553 12.3059 14.9423 12.1596C15.178 11.9754 15.57 11.8349 16.097 11.754C17.1756 11.5885 18.2879 11.7228 18.8293 11.7228V10.2228ZM13.1741 12.997C13.3083 14.5514 14.1988 15.4379 14.9121 16.0539C15.2939 16.3836 15.5538 16.5819 15.7584 16.8075C15.9395 17.0073 15.9711 17.1206 15.9711 17.2106H17.4711C17.4711 16.6003 17.1798 16.1421 16.8697 15.8001C16.5831 15.4839 16.1837 15.1702 15.8926 14.9187C15.2601 14.3725 14.7507 13.8202 14.6686 12.868L13.1741 12.997ZM15.9711 17.2106C15.9711 17.5398 15.8664 18.028 15.5961 18.7038C15.3296 19.3699 14.9213 20.1718 14.3616 21.114L15.6511 21.8802C16.2345 20.8983 16.6836 20.0237 16.9888 19.261C17.29 18.5079 17.4711 17.8149 17.4711 17.2106H15.9711ZM3.35217 17.1506C3.80649 16.9525 4.14144 16.8101 4.36103 16.7214L3.79908 15.3306C3.55983 15.4273 3.20961 15.5763 2.75244 15.7758L3.35217 17.1506ZM4.36099 16.7214C6.26507 15.9522 7.4313 15.8857 8.05907 16.1627L8.66463 14.7903C7.4305 14.2457 5.74213 14.5456 3.79912 15.3306L4.36099 16.7214ZM8.05906 16.1627C8.36338 16.297 8.52211 16.4457 8.61592 16.5749C8.71338 16.7091 8.77369 16.8675 8.81682 17.0697C8.83874 17.1725 8.8549 17.2796 8.87138 17.4007C8.8866 17.5125 8.90439 17.6553 8.92688 17.7853C8.96921 18.03 9.054 18.4199 9.34819 18.7283L10.4335 17.6928C10.4699 17.731 10.4404 17.7348 10.4049 17.5297C10.3885 17.4348 10.3765 17.3368 10.3577 17.1983C10.3401 17.0692 10.3179 16.9166 10.2838 16.7568C10.2149 16.4339 10.0926 16.0555 9.82959 15.6934C9.56294 15.3263 9.18344 15.0193 8.66464 14.7903L8.05906 16.1627ZM9.34817 18.7282C9.59065 18.9824 9.89031 19.1223 10.1114 19.2108C10.2262 19.2567 10.3431 19.2974 10.44 19.3314C10.5429 19.3674 10.6267 19.3971 10.7038 19.4284C10.866 19.4942 10.9202 19.5379 10.9359 19.5548C10.9383 19.5573 10.9384 19.5579 10.9377 19.5567C10.9369 19.5555 10.9366 19.5546 10.9368 19.5551C10.937 19.5557 10.9387 19.5601 10.9404 19.57C10.9421 19.5801 10.944 19.5969 10.944 19.622H12.444C12.444 19.1875 12.2998 18.8184 12.0337 18.5326C11.7919 18.2729 11.4919 18.1294 11.2678 18.0384C11.1517 17.9913 11.0343 17.9502 10.936 17.9157C10.8316 17.8792 10.7473 17.8496 10.6688 17.8182C10.5035 17.7521 10.4489 17.7089 10.4335 17.6929L9.34817 18.7282ZM10.944 19.622C10.944 20.143 10.7673 20.794 10.3416 21.592L11.665 22.2981C12.1603 21.3697 12.444 20.472 12.444 19.622H10.944Z" fill="#A06205"/>
</svg>
