<svg width="29" height="29" viewBox="0 0 29 29" fill="none" xmlns="http://www.w3.org/2000/svg">
<g filter="url(#filter0_d_163_339)">
<path d="M23.1598 5.00017C22.0998 3.93737 20.6946 3.28871 19.1981 3.17134C17.7017 3.05397 16.2126 3.47563 14.9998 4.36017C13.7274 3.4138 12.1438 2.98468 10.5677 3.1592C8.99164 3.33373 7.54023 4.09894 6.50576 5.30075C5.47129 6.50256 4.93061 8.05169 4.99259 9.63618C5.05457 11.2207 5.71461 12.7228 6.83979 13.8402L13.0498 20.0602C13.5698 20.5719 14.2702 20.8588 14.9998 20.8588C15.7294 20.8588 16.4298 20.5719 16.9498 20.0602L23.1598 13.8402C24.3274 12.6654 24.9827 11.0764 24.9827 9.42017C24.9827 7.76389 24.3274 6.1749 23.1598 5.00017ZM21.7498 12.4602L15.5398 18.6702C15.4691 18.7415 15.385 18.7982 15.2923 18.8368C15.1996 18.8755 15.1002 18.8954 14.9998 18.8954C14.8994 18.8954 14.7999 18.8755 14.7072 18.8368C14.6146 18.7982 14.5305 18.7415 14.4598 18.6702L8.24979 12.4302C7.46555 11.6285 7.0264 10.5516 7.0264 9.43017C7.0264 8.3087 7.46555 7.23182 8.24979 6.43017C9.04894 5.64115 10.1268 5.19873 11.2498 5.19873C12.3728 5.19873 13.4506 5.64115 14.2498 6.43017C14.3428 6.52389 14.4534 6.59829 14.5752 6.64906C14.6971 6.69983 14.8278 6.72596 14.9598 6.72596C15.0918 6.72596 15.2225 6.69983 15.3444 6.64906C15.4662 6.59829 15.5768 6.52389 15.6698 6.43017C16.4689 5.64115 17.5468 5.19873 18.6698 5.19873C19.7928 5.19873 20.8706 5.64115 21.6698 6.43017C22.4648 7.22132 22.9184 8.29236 22.9333 9.41385C22.9483 10.5353 22.5234 11.6181 21.7498 12.4302V12.4602Z" fill="white"/>
</g>
<defs>
<filter id="filter0_d_163_339" x="-1" y="0" width="32" height="32" filterUnits="userSpaceOnUse" color-interpolation-filters="sRGB">
<feFlood flood-opacity="0" result="BackgroundImageFix"/>
<feColorMatrix in="SourceAlpha" type="matrix" values="0 0 0 0 0 0 0 0 0 0 0 0 0 0 0 0 0 0 127 0" result="hardAlpha"/>
<feOffset dy="4"/>
<feGaussianBlur stdDeviation="2"/>
<feComposite in2="hardAlpha" operator="out"/>
<feColorMatrix type="matrix" values="0 0 0 0 0 0 0 0 0 0 0 0 0 0 0 0 0 0 0.25 0"/>
<feBlend mode="normal" in2="BackgroundImageFix" result="effect1_dropShadow_163_339"/>
<feBlend mode="normal" in="SourceGraphic" in2="effect1_dropShadow_163_339" result="shape"/>
</filter>
</defs>
</svg>
